<mxfile host="app.diagrams.net" agent="Mozilla/5.0 (X11; Linux x86_64) AppleWebKit/537.36 (KHTML, like Gecko) Chrome/112.0.0.0 Safari/537.36" version="27.2.0">
  <diagram name="Página-1" id="4iPosBqSV-hDCMXe5YIW">
    <mxGraphModel dx="1140" dy="714" grid="1" gridSize="10" guides="1" tooltips="1" connect="1" arrows="1" fold="1" page="1" pageScale="1" pageWidth="827" pageHeight="1169" math="0" shadow="0">
      <root>
        <mxCell id="0" />
        <mxCell id="1" parent="0" />
        <mxCell id="SoBit-bm_L9p2MAUNlty-31" value="" style="rounded=0;whiteSpace=wrap;html=1;" vertex="1" parent="1">
          <mxGeometry x="850" y="510" width="210" height="170" as="geometry" />
        </mxCell>
        <mxCell id="SoBit-bm_L9p2MAUNlty-27" value="" style="rounded=0;whiteSpace=wrap;html=1;fillStyle=auto;shadow=1;glass=0;dashed=1;" vertex="1" parent="1">
          <mxGeometry x="250" y="178" width="790" height="300" as="geometry" />
        </mxCell>
        <mxCell id="SoBit-bm_L9p2MAUNlty-8" value="" style="edgeStyle=orthogonalEdgeStyle;rounded=0;orthogonalLoop=1;jettySize=auto;html=1;" edge="1" parent="1" source="SoBit-bm_L9p2MAUNlty-2" target="SoBit-bm_L9p2MAUNlty-4">
          <mxGeometry relative="1" as="geometry" />
        </mxCell>
        <mxCell id="SoBit-bm_L9p2MAUNlty-2" value="&lt;b&gt;Client&lt;/b&gt;&lt;div&gt;Usuários Autenticados (IAM)&lt;/div&gt;" style="rounded=0;whiteSpace=wrap;html=1;" vertex="1" parent="1">
          <mxGeometry x="40" y="240" width="120" height="60" as="geometry" />
        </mxCell>
        <mxCell id="SoBit-bm_L9p2MAUNlty-10" value="" style="edgeStyle=orthogonalEdgeStyle;rounded=0;orthogonalLoop=1;jettySize=auto;html=1;" edge="1" parent="1" source="SoBit-bm_L9p2MAUNlty-3" target="SoBit-bm_L9p2MAUNlty-6">
          <mxGeometry relative="1" as="geometry" />
        </mxCell>
        <mxCell id="SoBit-bm_L9p2MAUNlty-3" value="&lt;b&gt;IA Externa&lt;/b&gt;&lt;div&gt;OpenRouter API&lt;/div&gt;" style="rounded=0;whiteSpace=wrap;html=1;" vertex="1" parent="1">
          <mxGeometry x="590" y="10" width="120" height="60" as="geometry" />
        </mxCell>
        <mxCell id="SoBit-bm_L9p2MAUNlty-11" value="" style="edgeStyle=orthogonalEdgeStyle;rounded=0;orthogonalLoop=1;jettySize=auto;html=1;" edge="1" parent="1" source="SoBit-bm_L9p2MAUNlty-4" target="SoBit-bm_L9p2MAUNlty-2">
          <mxGeometry relative="1" as="geometry" />
        </mxCell>
        <mxCell id="SoBit-bm_L9p2MAUNlty-21" value="Requests" style="edgeLabel;html=1;align=center;verticalAlign=middle;resizable=0;points=[];" vertex="1" connectable="0" parent="SoBit-bm_L9p2MAUNlty-11">
          <mxGeometry x="0.1077" y="-4" relative="1" as="geometry">
            <mxPoint as="offset" />
          </mxGeometry>
        </mxCell>
        <mxCell id="SoBit-bm_L9p2MAUNlty-13" value="" style="edgeStyle=orthogonalEdgeStyle;rounded=0;orthogonalLoop=1;jettySize=auto;html=1;" edge="1" parent="1" source="SoBit-bm_L9p2MAUNlty-4" target="SoBit-bm_L9p2MAUNlty-6">
          <mxGeometry relative="1" as="geometry" />
        </mxCell>
        <mxCell id="SoBit-bm_L9p2MAUNlty-15" value="" style="edgeStyle=orthogonalEdgeStyle;rounded=0;orthogonalLoop=1;jettySize=auto;html=1;" edge="1" parent="1" source="SoBit-bm_L9p2MAUNlty-4" target="SoBit-bm_L9p2MAUNlty-14">
          <mxGeometry relative="1" as="geometry" />
        </mxCell>
        <mxCell id="SoBit-bm_L9p2MAUNlty-4" value="&lt;span style=&quot;background-color: transparent;&quot;&gt;&lt;b&gt;Exposição&lt;/b&gt;&lt;/span&gt;&lt;div&gt;&lt;span style=&quot;background-color: transparent;&quot;&gt;Amazon API Gateway&lt;/span&gt;&lt;/div&gt;" style="rounded=0;whiteSpace=wrap;html=1;" vertex="1" parent="1">
          <mxGeometry x="290" y="240" width="130" height="60" as="geometry" />
        </mxCell>
        <mxCell id="SoBit-bm_L9p2MAUNlty-5" value="&lt;b&gt;Persistência&lt;/b&gt;&lt;div&gt;&lt;span style=&quot;background-color: transparent;&quot;&gt;MongoDB Atlas&lt;/span&gt;&lt;/div&gt;" style="shape=cylinder3;whiteSpace=wrap;html=1;boundedLbl=1;backgroundOutline=1;size=15;" vertex="1" parent="1">
          <mxGeometry x="737" y="548.5" width="90" height="90" as="geometry" />
        </mxCell>
        <mxCell id="SoBit-bm_L9p2MAUNlty-7" value="" style="edgeStyle=orthogonalEdgeStyle;rounded=0;orthogonalLoop=1;jettySize=auto;html=1;" edge="1" parent="1" source="SoBit-bm_L9p2MAUNlty-6" target="SoBit-bm_L9p2MAUNlty-5">
          <mxGeometry relative="1" as="geometry">
            <Array as="points">
              <mxPoint x="640" y="350" />
              <mxPoint x="665" y="350" />
            </Array>
          </mxGeometry>
        </mxCell>
        <mxCell id="SoBit-bm_L9p2MAUNlty-26" value="Save - JSON Response" style="edgeLabel;html=1;align=center;verticalAlign=middle;resizable=0;points=[];" vertex="1" connectable="0" parent="SoBit-bm_L9p2MAUNlty-7">
          <mxGeometry x="-0.1579" y="1" relative="1" as="geometry">
            <mxPoint as="offset" />
          </mxGeometry>
        </mxCell>
        <mxCell id="SoBit-bm_L9p2MAUNlty-9" value="" style="edgeStyle=orthogonalEdgeStyle;rounded=0;orthogonalLoop=1;jettySize=auto;html=1;" edge="1" parent="1" source="SoBit-bm_L9p2MAUNlty-6" target="SoBit-bm_L9p2MAUNlty-3">
          <mxGeometry relative="1" as="geometry" />
        </mxCell>
        <mxCell id="SoBit-bm_L9p2MAUNlty-17" value="HTTPS - POST/v1/chat&lt;div&gt;(Axios)&lt;/div&gt;" style="edgeLabel;html=1;align=center;verticalAlign=middle;resizable=0;points=[];" vertex="1" connectable="0" parent="SoBit-bm_L9p2MAUNlty-9">
          <mxGeometry x="0.0909" relative="1" as="geometry">
            <mxPoint x="1" y="-18" as="offset" />
          </mxGeometry>
        </mxCell>
        <mxCell id="SoBit-bm_L9p2MAUNlty-12" value="" style="edgeStyle=orthogonalEdgeStyle;rounded=0;orthogonalLoop=1;jettySize=auto;html=1;" edge="1" parent="1" source="SoBit-bm_L9p2MAUNlty-6" target="SoBit-bm_L9p2MAUNlty-4">
          <mxGeometry relative="1" as="geometry" />
        </mxCell>
        <mxCell id="SoBit-bm_L9p2MAUNlty-34" value="Requests&lt;div&gt;Load Balancer&lt;/div&gt;" style="edgeLabel;html=1;align=center;verticalAlign=middle;resizable=0;points=[];" vertex="1" connectable="0" parent="SoBit-bm_L9p2MAUNlty-12">
          <mxGeometry x="0.1143" y="2" relative="1" as="geometry">
            <mxPoint as="offset" />
          </mxGeometry>
        </mxCell>
        <mxCell id="SoBit-bm_L9p2MAUNlty-23" value="" style="edgeStyle=orthogonalEdgeStyle;rounded=0;orthogonalLoop=1;jettySize=auto;html=1;" edge="1" parent="1" source="SoBit-bm_L9p2MAUNlty-6" target="SoBit-bm_L9p2MAUNlty-22">
          <mxGeometry relative="1" as="geometry" />
        </mxCell>
        <mxCell id="SoBit-bm_L9p2MAUNlty-6" value="&lt;b&gt;API (Auto Scaling)&lt;/b&gt;&lt;div&gt;AWS Lambda (Node.js)&lt;/div&gt;" style="rounded=0;whiteSpace=wrap;html=1;" vertex="1" parent="1">
          <mxGeometry x="540" y="220" width="160" height="100" as="geometry" />
        </mxCell>
        <mxCell id="SoBit-bm_L9p2MAUNlty-14" value="&lt;div&gt;&lt;b&gt;Observabilidade&lt;/b&gt;&lt;/div&gt;&lt;div&gt;Amazon CloudWatch&lt;/div&gt;" style="rounded=0;whiteSpace=wrap;html=1;" vertex="1" parent="1">
          <mxGeometry x="340" y="380" width="210" height="60" as="geometry" />
        </mxCell>
        <mxCell id="SoBit-bm_L9p2MAUNlty-16" style="edgeStyle=orthogonalEdgeStyle;rounded=0;orthogonalLoop=1;jettySize=auto;html=1;entryX=0.819;entryY=-0.05;entryDx=0;entryDy=0;entryPerimeter=0;" edge="1" parent="1" source="SoBit-bm_L9p2MAUNlty-6" target="SoBit-bm_L9p2MAUNlty-14">
          <mxGeometry relative="1" as="geometry">
            <Array as="points">
              <mxPoint x="580" y="350" />
              <mxPoint x="542" y="350" />
            </Array>
          </mxGeometry>
        </mxCell>
        <mxCell id="SoBit-bm_L9p2MAUNlty-24" value="" style="edgeStyle=orthogonalEdgeStyle;rounded=0;orthogonalLoop=1;jettySize=auto;html=1;" edge="1" parent="1" source="SoBit-bm_L9p2MAUNlty-22" target="SoBit-bm_L9p2MAUNlty-6">
          <mxGeometry relative="1" as="geometry" />
        </mxCell>
        <mxCell id="SoBit-bm_L9p2MAUNlty-25" value="Reprocessamento&lt;div&gt;Falha ao OpenRouter&lt;/div&gt;&lt;div&gt;(Axios Retry)&lt;/div&gt;" style="edgeLabel;html=1;align=center;verticalAlign=middle;resizable=0;points=[];" vertex="1" connectable="0" parent="SoBit-bm_L9p2MAUNlty-24">
          <mxGeometry x="0.1333" relative="1" as="geometry">
            <mxPoint as="offset" />
          </mxGeometry>
        </mxCell>
        <mxCell id="SoBit-bm_L9p2MAUNlty-22" value="&lt;b&gt;Fallback / Mesageria&lt;/b&gt;&lt;div&gt;SQS / DLQ&lt;/div&gt;" style="rounded=0;whiteSpace=wrap;html=1;" vertex="1" parent="1">
          <mxGeometry x="860" y="230" width="160" height="60" as="geometry" />
        </mxCell>
        <mxCell id="SoBit-bm_L9p2MAUNlty-28" value="&lt;b&gt;&lt;i&gt;AWS Cloud - API Serveless com AWS LAMBDA + API Gateway&lt;/i&gt;&lt;/b&gt;" style="text;html=1;align=center;verticalAlign=middle;whiteSpace=wrap;rounded=0;" vertex="1" parent="1">
          <mxGeometry x="262" y="185" width="218" height="30" as="geometry" />
        </mxCell>
        <mxCell id="SoBit-bm_L9p2MAUNlty-29" value="&lt;div style=&quot;line-height: 0%;&quot;&gt;&lt;h1 style=&quot;margin-top: 0px;&quot;&gt;&lt;span style=&quot;font-weight: 400;&quot;&gt;&lt;font style=&quot;font-size: 13px;&quot;&gt;{&lt;/font&gt;&lt;/span&gt;&lt;/h1&gt;&lt;h1 style=&quot;margin-top: 0px;&quot;&gt;&lt;span style=&quot;font-weight: 400;&quot;&gt;&lt;font style=&quot;font-size: 13px;&quot;&gt;&amp;nbsp; &quot;userId&quot;: &quot;123&quot;,&lt;/font&gt;&lt;/span&gt;&lt;/h1&gt;&lt;h1 style=&quot;margin-top: 0px;&quot;&gt;&lt;span style=&quot;font-weight: 400;&quot;&gt;&lt;font style=&quot;font-size: 13px;&quot;&gt;&amp;nbsp; &quot;prompt&quot;: &quot;Cotação do dólar?&quot;,&lt;/font&gt;&lt;/span&gt;&lt;/h1&gt;&lt;h1 style=&quot;margin-top: 0px;&quot;&gt;&lt;span style=&quot;font-weight: 400;&quot;&gt;&lt;font style=&quot;font-size: 13px;&quot;&gt;&amp;nbsp; &quot;response&quot;: &quot;R$ 5,10&quot;,&lt;/font&gt;&lt;/span&gt;&lt;/h1&gt;&lt;h1 style=&quot;margin-top: 0px;&quot;&gt;&lt;span style=&quot;font-weight: 400;&quot;&gt;&lt;font style=&quot;font-size: 13px;&quot;&gt;&amp;nbsp; &quot;model&quot;: &quot;gemma-3-12b-it&quot;,&lt;/font&gt;&lt;/span&gt;&lt;/h1&gt;&lt;h1 style=&quot;margin-top: 0px;&quot;&gt;&lt;span style=&quot;font-weight: 400;&quot;&gt;&lt;font style=&quot;font-size: 13px;&quot;&gt;&amp;nbsp; &quot;timestamp&quot;: &quot;...&quot;&lt;/font&gt;&lt;/span&gt;&lt;/h1&gt;&lt;h1 style=&quot;margin-top: 0px;&quot;&gt;&lt;span style=&quot;font-weight: 400;&quot;&gt;&lt;font style=&quot;font-size: 13px;&quot;&gt;}&lt;/font&gt;&lt;/span&gt;&lt;/h1&gt;&lt;/div&gt;" style="text;html=1;whiteSpace=wrap;overflow=hidden;rounded=0;" vertex="1" parent="1">
          <mxGeometry x="858" y="523.5" width="210" height="140" as="geometry" />
        </mxCell>
        <mxCell id="SoBit-bm_L9p2MAUNlty-35" value="" style="rounded=0;whiteSpace=wrap;html=1;" vertex="1" parent="1">
          <mxGeometry x="710" y="80" width="210" height="90" as="geometry" />
        </mxCell>
        <mxCell id="SoBit-bm_L9p2MAUNlty-36" value="&lt;div style=&quot;line-height: 0%;&quot;&gt;&lt;h1 style=&quot;margin-top: 0px;&quot;&gt;&lt;span style=&quot;font-weight: 400;&quot;&gt;&lt;font style=&quot;font-size: 13px;&quot;&gt;{&lt;/font&gt;&lt;/span&gt;&lt;/h1&gt;&lt;h1 style=&quot;margin-top: 0px;&quot;&gt;&lt;span style=&quot;font-weight: 400;&quot;&gt;&lt;font style=&quot;font-size: 13px;&quot;&gt;&amp;nbsp; &quot;userId&quot;: &quot;123&quot;,&lt;/font&gt;&lt;/span&gt;&lt;/h1&gt;&lt;h1 style=&quot;margin-top: 0px;&quot;&gt;&lt;span style=&quot;font-weight: 400;&quot;&gt;&lt;font style=&quot;font-size: 13px;&quot;&gt;&amp;nbsp; &quot;prompt&quot;: &quot;Cotação do dólar?&quot;&lt;/font&gt;&lt;/span&gt;&lt;/h1&gt;&lt;h1 style=&quot;margin-top: 0px;&quot;&gt;&lt;span style=&quot;font-weight: 400;&quot;&gt;&lt;font style=&quot;font-size: 13px;&quot;&gt;}&lt;/font&gt;&lt;/span&gt;&lt;/h1&gt;&lt;/div&gt;" style="text;html=1;whiteSpace=wrap;overflow=hidden;rounded=0;" vertex="1" parent="1">
          <mxGeometry x="718" y="83.5" width="210" height="86.5" as="geometry" />
        </mxCell>
      </root>
    </mxGraphModel>
  </diagram>
</mxfile>
